<?xml version="1.0" standalone="no"?>
<!DOCTYPE svg PUBLIC "-//W3C//DTD SVG 20010904//EN"
 "http://www.w3.org/TR/2001/REC-SVG-20010904/DTD/svg10.dtd">
<svg version="1.0" xmlns="http://www.w3.org/2000/svg"
 width="555.000000pt" height="555.000000pt" viewBox="0 0 555.000000 555.000000"
 preserveAspectRatio="xMidYMid meet">
<metadata>
Created by potrace 1.14, written by Peter Selinger 2001-2017
</metadata>
<g transform="translate(0.000000,555.000000) scale(0.100000,-0.100000)"
fill="#000000" stroke="none">
<path d="M2560 5503 c-362 -30 -607 -218 -715 -549 -14 -42 -25 -81 -25 -86 0
-6 15 5 34 24 137 137 282 218 456 254 69 14 218 19 295 8 113 -14 265 -74
372 -147 153 -102 329 -341 436 -587 31 -71 72 -221 83 -305 3 -27 8 -57 9
-67 22 -112 22 -598 1 -716 -2 -9 -7 -39 -10 -65 -4 -27 -9 -57 -11 -67 -2 -9
-6 -35 -9 -56 -11 -66 -55 -244 -87 -349 -141 -455 -441 -980 -759 -1328 -19
-21 -39 -46 -43 -54 -8 -13 -6 -13 15 0 315 197 523 375 735 632 253 305 483
783 558 1156 23 111 45 248 52 319 10 104 11 532 1 615 -38 320 -166 620 -373
875 -239 293 -515 456 -820 485 -77 8 -156 11 -195 8z"/>
<path d="M3853 5068 c192 -247 314 -495 387 -787 16 -64 32 -138 36 -166 3
-27 8 -59 10 -70 24 -122 24 -495 1 -650 -56 -371 -169 -681 -355 -965 -142
-218 -252 -351 -467 -565 -280 -279 -563 -485 -936 -680 -157 -82 -159 -80 46
-44 403 73 855 263 1194 503 516 365 854 912 941 1526 25 174 31 407 16 555
-4 39 -9 90 -12 115 -40 431 -174 739 -430 993 -103 102 -233 193 -370 262
-61 30 -114 55 -118 55 -4 0 22 -37 57 -82z"/>
<path d="M1106 4393 c-12 -12 -5 -31 25 -69 50 -61 82 -141 85 -208 3 -69 -8
-98 -55 -148 -31 -33 -32 -38 -15 -38 11 0 45 12 75 28 64 32 110 92 119 154
11 76 -30 175 -94 231 -38 33 -126 64 -140 50z"/>
<path d="M877 4312 c-30 -32 -21 -69 28 -121 67 -72 71 -97 30 -194 -13 -32
25 -2 59 46 26 35 30 50 30 106 0 74 -18 118 -61 149 -44 31 -68 35 -86 14z"/>
<path d="M4802 4204 c3 -5 17 -61 32 -124 25 -113 29 -135 41 -214 4 -21 8
-47 10 -58 2 -11 7 -46 10 -79 4 -33 8 -69 10 -79 9 -47 19 -302 19 -490 0
-213 -9 -352 -30 -460 -2 -14 -7 -36 -9 -50 -76 -405 -296 -775 -610 -1026
-72 -58 -219 -161 -270 -190 -391 -219 -787 -380 -1080 -439 -173 -35 -264
-49 -390 -61 -38 -4 -79 -8 -90 -9 -11 -1 -51 -3 -89 -4 -38 0 -67 -4 -64 -7
23 -22 576 -22 708 0 14 2 48 7 75 10 118 15 326 57 430 88 39 11 75 21 80 22
39 8 305 98 418 142 464 181 758 404 984 748 120 181 224 472 248 691 4 33 9
74 11 90 10 81 3 383 -11 450 -2 11 -7 43 -10 70 -21 175 -122 485 -218 669
-53 101 -180 301 -200 313 -5 3 -8 2 -5 -3z"/>
<path d="M1461 3996 c-6 -7 -18 -36 -26 -64 -19 -63 -57 -109 -109 -133 l-39
-17 44 -12 c49 -14 128 -6 174 16 79 37 86 157 13 208 -28 20 -42 20 -57 2z"/>
<path d="M755 3830 c-176 -46 -291 -109 -405 -220 -87 -85 -123 -135 -179
-247 -105 -211 -159 -467 -159 -753 0 -276 44 -481 151 -697 176 -357 539
-664 982 -832 33 -13 69 -27 80 -32 67 -29 359 -97 490 -114 28 -4 60 -8 73
-10 12 -2 22 1 22 6 0 5 -8 9 -17 10 -51 2 -216 60 -341 121 -369 176 -656
466 -830 837 -71 152 -132 353 -148 486 -3 22 -7 49 -11 59 -12 42 -11 331 2
429 22 162 54 306 88 388 l14 34 13 -24 c48 -91 184 -162 321 -167 108 -4 193
21 274 81 l30 23 140 -53 c225 -86 335 -125 346 -125 7 0 -4 15 -24 33 -19 17
-81 75 -137 127 -56 52 -117 108 -134 123 -132 121 -153 150 -199 285 -45 129
-80 175 -167 214 -93 42 -166 47 -275 18z"/>
<path d="M651 2283 c201 -266 398 -393 765 -492 62 -17 127 -33 145 -36 223
-39 433 -136 535 -249 62 -69 123 -187 157 -305 23 -80 25 -82 31 -49 3 19 6
77 7 129 0 368 -151 618 -432 713 -48 16 -174 44 -199 43 -8 0 -42 3 -75 7
-33 3 -82 9 -110 12 -135 14 -363 67 -525 121 -109 36 -268 100 -284 115 -18
15 -29 8 -15 -9z"/>
<path d="M609 2244 c64 -216 180 -435 326 -619 108 -135 286 -305 391 -372
277 -178 574 -237 870 -173 l52 11 -30 77 c-86 223 -204 373 -353 446 -62 30
-104 42 -210 61 -67 11 -93 17 -160 35 -362 97 -528 179 -707 348 -38 36 -92
95 -120 131 -70 90 -69 88 -59 55z"/>
<path d="M4970 1213 c-182 -32 -737 -219 -1010 -340 -91 -40 -405 -137 -515
-159 -11 -2 -42 -8 -70 -14 -27 -5 -63 -12 -80 -15 -152 -26 -456 -26 -585 0
-14 3 -38 8 -55 11 -105 19 -301 86 -406 139 -27 14 -49 23 -49 21 0 -12 208
-141 306 -190 135 -67 307 -128 429 -152 11 -2 31 -6 45 -9 24 -5 95 -16 195
-32 104 -16 490 -8 579 12 11 3 32 7 46 9 176 30 390 112 696 267 142 72 197
101 334 178 215 121 402 173 625 173 92 -1 98 1 73 14 -38 20 -195 71 -243 79
-49 8 -281 14 -315 8z"/>
<path d="M2150 734 c98 -113 284 -274 415 -359 33 -21 76 -49 95 -61 160 -104
522 -230 745 -261 72 -10 369 -11 440 -1 121 15 297 61 440 114 39 15 180 79
315 144 135 65 292 134 350 153 106 36 296 77 351 77 47 0 34 16 -23 28 -100
22 -113 23 -228 27 -158 5 -255 -15 -568 -121 -141 -47 -261 -87 -267 -89 -5
-1 -30 -8 -55 -15 -25 -7 -49 -14 -55 -16 -5 -1 -37 -9 -70 -17 -73 -19 -210
-44 -288 -52 -66 -7 -290 -8 -327 -1 -14 2 -52 7 -85 11 -33 4 -89 13 -125 20
-37 8 -77 16 -90 18 -269 51 -650 206 -892 364 -104 68 -106 69 -78 37z"/>
</g>
</svg>
